<svg width="32" height="32" viewBox="0 0 32 32" fill="none" xmlns="http://www.w3.org/2000/svg">
<circle cx="16.0571" cy="16" r="14.9429" stroke="#F0F0F0" stroke-width="2"/>
<path d="M12.4525 8.91406H18.7765C21.1857 8.91406 23.1431 10.8715 23.1431 13.2806V19.6046C23.1431 20.7627 22.683 21.8734 21.8641 22.6923C21.0453 23.5112 19.9346 23.9712 18.7765 23.9712H12.4525C10.0434 23.9712 8.08594 22.0138 8.08594 19.6046V13.2806C8.08594 12.1225 8.54599 11.0119 9.36488 10.193C10.1838 9.37411 11.2944 8.91406 12.4525 8.91406ZM12.3019 10.4198C11.5831 10.4198 10.8938 10.7053 10.3855 11.2136C9.8772 11.7219 9.59165 12.4113 9.59165 13.1301V19.7552C9.59165 21.2534 10.8038 22.4655 12.3019 22.4655H18.9271C19.6459 22.4655 20.3353 22.1799 20.8435 21.6717C21.3518 21.1634 21.6374 20.474 21.6374 19.7552V13.1301C21.6374 11.6319 20.4253 10.4198 18.9271 10.4198H12.3019ZM19.567 11.5491C19.8166 11.5491 20.056 11.6482 20.2324 11.8247C20.4089 12.0012 20.5081 12.2405 20.5081 12.4901C20.5081 12.7397 20.4089 12.9791 20.2324 13.1556C20.056 13.3321 19.8166 13.4312 19.567 13.4312C19.3174 13.4312 19.0781 13.3321 18.9016 13.1556C18.7251 12.9791 18.6259 12.7397 18.6259 12.4901C18.6259 12.2405 18.7251 12.0012 18.9016 11.8247C19.0781 11.6482 19.3174 11.5491 19.567 11.5491ZM15.6145 12.6783C16.6129 12.6783 17.5703 13.0749 18.2763 13.7809C18.9822 14.4868 19.3788 15.4443 19.3788 16.4426C19.3788 17.441 18.9822 18.3984 18.2763 19.1044C17.5703 19.8103 16.6129 20.2069 15.6145 20.2069C14.6162 20.2069 13.6587 19.8103 12.9528 19.1044C12.2468 18.3984 11.8502 17.441 11.8502 16.4426C11.8502 15.4443 12.2468 14.4868 12.9528 13.7809C13.6587 13.0749 14.6162 12.6783 15.6145 12.6783ZM15.6145 14.1841C15.0155 14.1841 14.441 14.422 14.0175 14.8456C13.5939 15.2691 13.3559 15.8436 13.3559 16.4426C13.3559 17.0416 13.5939 17.6161 14.0175 18.0397C14.441 18.4633 15.0155 18.7012 15.6145 18.7012C16.2135 18.7012 16.788 18.4633 17.2116 18.0397C17.6351 17.6161 17.8731 17.0416 17.8731 16.4426C17.8731 15.8436 17.6351 15.2691 17.2116 14.8456C16.788 14.422 16.2135 14.1841 15.6145 14.1841Z" fill="#F0F0F0" fill-opacity="0.941176"/>
</svg>
