<svg width="32" height="32" viewBox="0 0 32 32" fill="none" xmlns="http://www.w3.org/2000/svg">
<circle cx="15.9429" cy="16" r="14.9429" stroke="#F0F0F0" stroke-width="2"/>
<path d="M19.3617 23.9932C18.7422 23.8839 17.9108 23.5106 16.7338 22.5662C15.303 21.4145 14.2194 20.3931 12.9155 18.5722C11.6588 16.8137 11.0896 15.7182 10.3806 13.6871C9.57953 11.3937 9.97175 10.3348 10.277 9.90649C10.6408 9.39439 11.0914 9.12918 11.6561 8.88666C11.9762 8.75244 12.3084 8.64758 12.6485 8.57341C12.6826 8.56561 12.7143 8.55804 12.7427 8.55116C12.912 8.50939 13.1686 8.44637 13.4503 8.61168C13.6384 8.7213 13.7913 8.90468 14.0244 9.22685C14.5026 9.88678 15.0714 11.269 15.2544 11.9309C15.377 12.3768 15.4583 12.6712 15.4049 12.9759C15.342 13.3326 15.1107 13.5755 14.8365 13.8333C14.7851 13.8817 14.7344 13.9277 14.6853 13.9723C14.3889 14.2413 14.32 14.322 14.3266 14.4889C14.3404 14.8244 14.6986 15.8791 15.4161 16.8816C16.1337 17.8841 16.9995 18.5372 17.3177 18.6646C17.4821 18.7305 17.5853 18.6928 17.9561 18.5051C18.0092 18.4782 18.0639 18.4502 18.1208 18.4227C18.5027 18.2353 18.8007 18.1076 19.1555 18.1702L19.1574 18.1705C19.4662 18.225 19.7074 18.4031 20.1071 18.6971C20.6284 19.0807 21.7984 20.0743 22.2707 20.7418C22.5005 21.0663 22.6247 21.2694 22.6658 21.4799C22.7277 21.797 22.579 22.0107 22.4814 22.1541C22.4651 22.1779 22.4471 22.2039 22.4279 22.233C22.2396 22.5202 22.0246 22.7896 21.7857 23.0378C21.361 23.4736 20.9516 23.7968 20.335 23.957C20.018 24.0414 19.6852 24.0538 19.3617 23.9932Z" fill="#F0F0F0" fill-opacity="0.941176"/>
</svg>
