<svg width="33" height="32" viewBox="0 0 33 32" fill="none" xmlns="http://www.w3.org/2000/svg">
<circle cx="16.3149" cy="16" r="14.9429" stroke="#F0F0F0" stroke-width="2"/>
<path d="M12.1389 10.3909C12.1387 10.7824 11.9853 11.1578 11.7123 11.4345C11.4394 11.7111 11.0693 11.8665 10.6835 11.8663C10.2977 11.8661 9.92773 11.7104 9.65505 11.4334C9.38238 11.1565 9.2293 10.7809 9.22949 10.3894C9.22969 9.99794 9.38313 9.62257 9.65608 9.34588C9.92903 9.0692 10.2991 8.91387 10.6849 8.91406C11.0707 8.91426 11.4407 9.06996 11.7133 9.34693C11.986 9.62389 12.1391 9.99942 12.1389 10.3909ZM12.1825 12.9593H9.27313V22.1998H12.1825V12.9593ZM16.7794 12.9593H13.8846V22.1998H16.7503V17.3508C16.7503 14.6495 20.2198 14.3985 20.2198 17.3508V22.1998H23.0928V16.347C23.0928 11.7932 17.9577 11.963 16.7503 14.1993L16.7794 12.9593Z" fill="#F0F0F0" fill-opacity="0.941176"/>
</svg>
