<svg width="33" height="32" viewBox="0 0 33 32" fill="none" xmlns="http://www.w3.org/2000/svg">
<circle cx="16.685" cy="16" r="14.9429" stroke="#F0F0F0" stroke-width="2"/>
<path d="M22.543 10.2098L21.4853 11.0316L16.9816 14.3599L12.4778 10.9988L11.4201 10.177C11.1709 9.97198 10.8667 9.84418 10.5452 9.80943C10.2237 9.77468 9.899 9.83449 9.61134 9.98146C9.32368 10.1284 9.0857 10.3561 8.92688 10.6363C8.76807 10.9164 8.69539 11.2368 8.71786 11.5576V21.0822C8.71786 21.3786 8.83627 21.6629 9.04703 21.8725C9.2578 22.0821 9.54366 22.1998 9.84172 22.1998H12.4778V15.8556L16.9816 19.2167L21.4853 15.8556V22.1998H24.1214C24.4195 22.1998 24.7053 22.0821 24.9161 21.8725C25.1269 21.6629 25.2453 21.3786 25.2453 21.0822V11.5576C25.2608 11.2395 25.183 10.9238 25.0215 10.6489C24.86 10.3739 24.6216 10.1515 24.3354 10.0088C24.0492 9.86602 23.7274 9.80903 23.4092 9.84472C23.091 9.88042 22.7901 10.0073 22.543 10.2098Z" fill="#F0F0F0" fill-opacity="0.941176"/>
</svg>
