<svg width="36" height="36" viewBox="0 0 36 36" fill="none" xmlns="http://www.w3.org/2000/svg">
<path d="M24.916 10.7858V10.7859L24.923 10.7858C25.0042 10.7846 25.0849 10.7995 25.1603 10.8296C25.2358 10.8596 25.3046 10.9042 25.3629 10.9609L25.7115 10.6025L25.3629 10.9609C25.4211 11.0175 25.4676 11.0851 25.4997 11.1597C25.5315 11.2334 25.5485 11.3126 25.55 11.3929V24.6071C25.5485 24.6873 25.5315 24.7665 25.4997 24.8403C25.4676 24.9149 25.4211 24.9824 25.3629 25.0391C25.3046 25.0957 25.2358 25.1404 25.1603 25.1704C25.0849 25.2005 25.0042 25.2153 24.923 25.2142L24.923 25.2142H24.916H11.8482V25.2141L11.8413 25.2142C11.76 25.2153 11.6794 25.2005 11.6039 25.1704C11.5284 25.1404 11.4596 25.0957 11.4014 25.0391C11.3431 24.9824 11.2966 24.9149 11.2645 24.8403C11.2328 24.7665 11.2157 24.6873 11.2142 24.6071V11.3929C11.2157 11.3126 11.2328 11.2334 11.2645 11.1597C11.2966 11.0851 11.3431 11.0175 11.4014 10.9609C11.4596 10.9042 11.5284 10.8596 11.6039 10.8296C11.6794 10.7995 11.76 10.7846 11.8413 10.7858L11.8413 10.7858H11.8482H24.916ZM15.3659 23.6993H15.8659V23.1993V16.2566V15.7566H15.3659H14.6931C14.7507 15.7446 14.8077 15.7297 14.864 15.7118L14.7124 15.2353L14.864 15.7118C15.0936 15.6387 15.3052 15.518 15.485 15.3575C15.6647 15.197 15.8085 15.0003 15.907 14.7804C16.0055 14.5604 16.0564 14.3222 16.0564 14.0812C16.0564 13.8402 16.0055 13.6019 15.907 13.382C15.8085 13.1621 15.6647 12.9654 15.485 12.8049C15.3052 12.6444 15.0936 12.5236 14.864 12.4506C14.6433 12.3804 14.4108 12.3557 14.1805 12.378C13.739 12.3853 13.317 12.5639 13.0043 12.8767C12.6848 13.1961 12.5053 13.6294 12.5053 14.0812C12.5053 14.533 12.6848 14.9662 13.0043 15.2857C13.2502 15.5316 13.5637 15.6946 13.9011 15.7566H13.0516H12.5516V16.2566V23.1993V23.6993H13.0516H15.3659ZM23.7126 23.6993H24.2126V23.1993V19.2034C24.2126 18.0515 23.9105 17.1331 23.3292 16.4984C22.7454 15.861 21.9383 15.5734 21.0603 15.5715C20.5518 15.5544 20.0482 15.6754 19.6029 15.9219C19.5546 15.9486 19.5072 15.9767 19.4607 16.0062V15.7489H18.9607H16.6464H16.1464V16.2489V16.2526V16.2565V16.2606V16.2647V16.269V16.2734V16.278V16.2826V16.2874V16.2923V16.2974V16.3026V16.3078V16.3133V16.3188V16.3244V16.3302V16.3361V16.3421V16.3483V16.3545V16.3609V16.3674V16.374V16.3807V16.3876V16.3946V16.4016V16.4088V16.4161V16.4236V16.4311V16.4387V16.4465V16.4544V16.4623V16.4704V16.4786V16.487V16.4954V16.5039V16.5125V16.5213V16.5301V16.5391V16.5482V16.5573V16.5666V16.576V16.5855V16.5951V16.6047V16.6145V16.6244V16.6344V16.6445V16.6547V16.665V16.6754V16.6859V16.6965V16.7071V16.7179V16.7288V16.7398V16.7509V16.762V16.7733V16.7846V16.7961V16.8076V16.8192V16.8309V16.8428V16.8547V16.8667V16.8787V16.8909V16.9032V16.9155V16.9279V16.9404V16.9531V16.9657V16.9785V16.9914V17.0043V17.0173V17.0304V17.0436V17.0569V17.0703V17.0837V17.0972V17.1108V17.1245V17.1382V17.1521V17.166V17.18V17.194V17.2081V17.2224V17.2366V17.251V17.2654V17.2799V17.2945V17.3092V17.3239V17.3387V17.3536V17.3685V17.3835V17.3986V17.4137V17.4289V17.4442V17.4595V17.4749V17.4904V17.506V17.5216V17.5372V17.553V17.5688V17.5846V17.6005V17.6165V17.6326V17.6487V17.6648V17.681V17.6973V17.7137V17.7301V17.7465V17.763V17.7796V17.7962V17.8129V17.8296V17.8464V17.8632V17.8801V17.8971V17.9141V17.9311V17.9482V17.9653V17.9825V17.9998V18.0171V18.0344V18.0518V18.0692V18.0867V18.1042V18.1218V18.1394V18.1571V18.1748V18.1925V18.2103V18.2282V18.246V18.264V18.2819V18.2999V18.3179V18.336V18.3541V18.3723V18.3905V18.4087V18.4269V18.4452V18.4636V18.4819V18.5003V18.5188V18.5372V18.5557V18.5743V18.5928V18.6114V18.63V18.6487V18.6674V18.6861V18.7048V18.7236V18.7424V18.7612V18.78V18.7989V18.8178V18.8367V18.8557V18.8746V18.8936V18.9126V18.9317V18.9507V18.9698V18.9889V19.008V19.0272V19.0463V19.0655V19.0847V19.1039V19.1231V19.1423V19.1616V19.1808V19.2001V19.2194V19.2387V19.2581V19.2774V19.2967V19.3161V19.3355V19.3548V19.3742V19.3936V19.413V19.4324V19.4518V19.4713V19.4907V19.5101V19.5296V19.549V19.5685V19.5879V19.6074V19.6268V19.6463V19.6657V19.6852V19.7047V19.7241V19.7436V19.7631V19.7825V19.802V19.8214V19.8409V19.8603V19.8798V19.8992V19.9186V19.938V19.9575V19.9769V19.9963V20.0157V20.0351V20.0544V20.0738V20.0932V20.1125V20.1318V20.1511V20.1705V20.1897V20.209V20.2283V20.2476V20.2668V20.286V20.3052V20.3244V20.3436V20.3627V20.3819V20.401V20.4201V20.4391V20.4582V20.4772V20.4962V20.5152V20.5342V20.5531V20.5721V20.591V20.6098V20.6287V20.6475V20.6663V20.685V20.7038V20.7225V20.7412V20.7598V20.7785V20.797V20.8156V20.8341V20.8526V20.8711V20.8895V20.9079V20.9263V20.9446V20.9629V20.9812V20.9994V21.0176V21.0357V21.0538V21.0719V21.09V21.1079V21.1259V21.1438V21.1617V21.1795V21.1973V21.2151V21.2328V21.2504V21.268V21.2856V21.3031V21.3206V21.338V21.3554V21.3728V21.3901V21.4073V21.4245V21.4416V21.4587V21.4758V21.4928V21.5097V21.5266V21.5434V21.5602V21.577V21.5936V21.6102V21.6268V21.6433V21.6598V21.6762V21.6925V21.7088V21.725V21.7412V21.7573V21.7733V21.7893V21.8052V21.8211V21.8369V21.8526V21.8682V21.8839V21.8994V21.9149V21.9303V21.9456V21.9609V21.9761V21.9912V22.0063V22.0213V22.0362V22.0511V22.0659V22.0806V22.0953V22.1099V22.1244V22.1388V22.1532V22.1674V22.1816V22.1958V22.2098V22.2238V22.2377V22.2516V22.2653V22.279V22.2926V22.3061V22.3195V22.3329V22.3461V22.3593V22.3724V22.3855V22.3984V22.4113V22.424V22.4367V22.4493V22.4618V22.4743V22.4866V22.4989V22.511V22.5231V22.5351V22.547V22.5588V22.5705V22.5821V22.5937V22.6051V22.6165V22.6277V22.6389V22.65V22.6609V22.6718V22.6826V22.6933V22.7039V22.7143V22.7247V22.735V22.7452V22.7553V22.7653V22.7752V22.785V22.7947V22.8042V22.8137V22.8231V22.8324V22.8415V22.8506V22.8596V22.8684V22.8772V22.8858V22.8943V22.9027V22.9111V22.9193V22.9273V22.9353V22.9432V22.951V22.9586V22.9661V22.9735V22.9809V22.988V22.9951V23.0021V23.0089V23.0157V23.0223V23.0288V23.0351V23.0414V23.0475V23.0535V23.0594V23.0652V23.0709V23.0764V23.0818V23.0871V23.0923V23.0973V23.1022V23.107V23.1117V23.1162V23.1206V23.1249V23.1291V23.1331V23.137V23.1407V23.1444V23.1479V23.1513V23.1545V23.1576V23.1606V23.1635V23.1662V23.1688V23.1712V23.1735V23.1757V23.1777V23.1796V23.1814V23.183V23.1845V23.1858V23.1871V23.1881V23.1891V23.1898V23.1905V23.191V23.1913V23.1916L16.6464 23.1916H16.1464V23.6916H16.6464H18.9607H19.4607V23.1916V19.3345V19.3223L19.4601 19.31C19.4538 19.1831 19.4708 19.0562 19.5102 18.9354C19.5643 18.7892 19.6613 18.6627 19.7886 18.5726C19.9171 18.4816 20.0703 18.4321 20.2277 18.4306C20.5089 18.431 20.6369 18.523 20.7176 18.6384C20.8207 18.7859 20.8984 19.0511 20.8984 19.4734V23.1993V23.6993H21.3984H23.7126Z" fill="#F0F0F0" stroke="#F0F0F0"/>
<circle cx="18" cy="18" r="17" stroke="#F0F0F0" stroke-width="2"/>
</svg>
