<svg width="23" height="22" viewBox="0 0 23 22" fill="none" xmlns="http://www.w3.org/2000/svg">
<path d="M5.66176 4.90686C4.69118 4.55637 3.77451 4.09804 2.8848 3.55882C4.2598 2.07598 6.01225 0.943627 8.00735 0.377451C7.03676 1.42892 6.22794 2.99265 5.66176 4.90686ZM2.8848 18.4142C4.2598 19.924 6.03921 21.0294 8.03431 21.6225C7.03676 20.5441 6.22794 18.9804 5.68872 17.0662C4.69118 17.4167 3.74755 17.875 2.8848 18.4142ZM4.85294 11.5392H0C0.107843 13.8039 0.889706 15.8799 2.15686 17.5784C3.18137 16.9314 4.2598 16.4191 5.3652 16.0147C5.06863 14.6397 4.90686 13.1299 4.85294 11.5392ZM14.1005 21.6225C16.0956 21.0564 17.875 19.924 19.223 18.4412C18.3333 17.902 17.4167 17.4436 16.4461 17.0931C15.8799 19.0074 15.0711 20.5711 14.1005 21.6225ZM19.223 3.58578C17.848 2.07598 16.0686 0.970588 14.0735 0.377451C15.0711 1.45588 15.8799 3.01961 16.4191 4.93382C17.4167 4.58333 18.3603 4.125 19.223 3.58578ZM5.39216 5.95833C4.28676 5.55392 3.20833 5.04167 2.18382 4.39461C0.916667 6.09314 0.134804 8.19608 0 10.4608H4.85294C4.90686 8.84314 5.06863 7.33333 5.39216 5.95833ZM17.2549 10.4608H22.1078C22 8.19608 21.2181 6.1201 19.951 4.42157C18.9265 5.06863 17.848 5.58088 16.7426 5.98529C17.0392 7.36029 17.201 8.8701 17.2549 10.4608ZM16.7157 16.0417C17.8211 16.4461 18.8995 16.9583 19.924 17.6054C21.2181 15.9069 22 13.8039 22.1078 11.5392H17.2549C17.201 13.1569 17.0392 14.6667 16.7157 16.0417ZM10.5147 22V16.1225C9.22059 16.1765 7.92647 16.3652 6.68627 16.7157C7.52206 19.5735 8.92402 21.5956 10.5147 22ZM16.1765 11.5392H11.5931V15.0441C12.9951 15.098 14.3431 15.3137 15.6642 15.6912C15.9608 14.424 16.1225 13.0221 16.1765 11.5392ZM11.5931 16.1225V21.973C13.1838 21.5956 14.5858 19.5735 15.3946 16.7157C14.1814 16.3922 12.8873 16.1765 11.5931 16.1225ZM11.5931 0V5.87745C12.8873 5.82353 14.1814 5.6348 15.4216 5.28431C14.5858 2.42647 13.1838 0.377451 11.5931 0ZM5.93137 10.4608H10.5147V6.95588C9.11274 6.90196 7.76471 6.68627 6.44363 6.30882C6.14706 7.57598 5.98529 8.97794 5.93137 10.4608ZM6.71323 5.25735C7.92647 5.60784 9.22059 5.82353 10.5147 5.87745V0C8.92402 0.377451 7.52206 2.42647 6.71323 5.25735ZM15.6642 6.30882C14.3431 6.68627 12.9951 6.90196 11.5931 6.95588V10.4608H16.1765C16.1225 8.97794 15.9608 7.57598 15.6642 6.30882ZM6.44363 15.6912C7.76471 15.3137 9.1397 15.098 10.5147 15.0441V11.5392H5.93137C5.98529 13.0221 6.14706 14.3971 6.44363 15.6912Z" fill="#4982F6"/>
</svg>
